<svg width="119" height="17" viewBox="0 0 119 17" fill="none" xmlns="http://www.w3.org/2000/svg">
<path d="M9.19743 0.195803V2.91149H4.09805V12.642H0.595627V0.195803H9.19743ZM23.1102 6.40188C23.1102 7.36106 22.9897 8.23507 22.7486 9.02392C22.5132 9.80709 22.1427 10.4825 21.6369 11.05C21.1311 11.6176 20.4812 12.0546 19.6872 12.361C18.8932 12.6619 17.9432 12.8123 16.8376 12.8123C15.7554 12.8123 14.8173 12.6619 14.0232 12.361C13.2351 12.0546 12.5852 11.6204 12.0734 11.0586C11.5617 10.4911 11.1824 9.81285 10.9354 9.02392C10.6883 8.23507 10.5648 7.35531 10.5648 6.38488C10.5648 5.09086 10.7854 3.9671 11.2265 3.01365C11.6735 2.0545 12.3617 1.31386 13.291 0.791719C14.2202 0.263903 15.4084 0 16.8552 0C18.3256 0 19.5195 0.263903 20.4371 0.791719C21.3605 1.31953 22.0369 2.06301 22.4662 3.02216C22.8955 3.9813 23.1102 5.10786 23.1102 6.40188ZM14.2349 6.40188C14.2349 7.15106 14.3232 7.79519 14.4996 8.33436C14.6761 8.87354 14.9555 9.28779 15.3377 9.5773C15.72 9.86672 16.22 10.0114 16.8376 10.0114C17.4786 10.0114 17.9874 9.86672 18.3638 9.5773C18.7461 9.28779 19.0196 8.87354 19.1843 8.33436C19.3548 7.79519 19.4401 7.15106 19.4401 6.40188C19.4401 5.27811 19.246 4.38998 18.8579 3.7373C18.4697 3.08463 17.8021 2.75826 16.8552 2.75826C16.2259 2.75826 15.7171 2.90582 15.329 3.20092C14.9466 3.49609 14.6672 3.91601 14.4908 4.46085C14.3202 5.00569 14.2349 5.6527 14.2349 6.40188ZM31.1827 2.77528C30.771 2.77528 30.4034 2.86041 30.0799 3.03068C29.7564 3.19525 29.48 3.43646 29.2506 3.7543C29.0212 4.07214 28.8448 4.46085 28.7213 4.92061C28.6036 5.37462 28.5448 5.89112 28.5448 6.46996C28.5448 7.25323 28.6477 7.91157 28.8536 8.44499C29.0594 8.9785 29.3712 9.38151 29.7887 9.65393C30.2123 9.92635 30.7416 10.0625 31.3767 10.0625C31.9532 10.0625 32.506 9.98589 33.0354 9.83263C33.5706 9.67947 34.1087 9.49501 34.6499 9.27934V12.1227C34.0794 12.3667 33.4942 12.5427 32.8942 12.6506C32.3002 12.7584 31.6679 12.8123 30.9974 12.8123C29.5976 12.8123 28.4507 12.5455 27.5567 12.012C26.6686 11.4729 26.0128 10.7265 25.5893 9.77309C25.1717 8.81958 24.9629 7.7129 24.9629 6.45296C24.9629 5.51087 25.0982 4.64819 25.3687 3.86493C25.6452 3.08175 26.0481 2.40354 26.5774 1.83033C27.1068 1.25143 27.7596 0.805911 28.536 0.493756C29.3182 0.175935 30.2123 0.017025 31.218 0.017025C31.8415 0.017025 32.4973 0.0879678 33.1854 0.229853C33.8794 0.366063 34.5558 0.587408 35.2145 0.893879L34.147 3.54142C33.6765 3.32584 33.2001 3.14417 32.7178 2.99662C32.2355 2.84906 31.7237 2.77528 31.1827 2.77528ZM42.8635 12.642H39.3787V2.94554H36.229V0.195803H46.0042V2.94554H42.8635V12.642ZM47.8484 0.195803H51.0944V5.89113C51.0944 6.14646 51.0917 6.41609 51.0862 6.69984C51.0799 6.97793 51.0709 7.25323 51.0591 7.52565C51.0474 7.79807 51.0329 8.05628 51.0158 8.30028C50.9977 8.54437 50.9769 8.76004 50.9534 8.94729H51.0239L56.335 0.195803H60.3317V12.642H57.0758V7.25323C57.0758 7.02047 57.0795 6.75659 57.0849 6.46151C57.0966 6.16634 57.1084 5.86271 57.1201 5.55053C57.1382 5.23845 57.1553 4.93761 57.1734 4.64819C57.1969 4.35868 57.2204 4.10614 57.2439 3.89047H57.1644L51.8532 12.642H47.8484V0.195803ZM74.1828 12.642H70.6803V7.56819H66.6312V12.642H63.1287V0.195803H66.6312V4.8099H70.6803V0.195803H74.1828V12.642ZM76.9797 0.195803H80.2266V5.89113C80.2266 6.14646 80.223 6.41609 80.2176 6.69984C80.2112 6.97793 80.2022 7.25323 80.1905 7.52565C80.1787 7.79807 80.1643 8.05628 80.1471 8.30028C80.129 8.54437 80.1083 8.76004 80.0848 8.94729H80.1552L85.4664 0.195803H89.463V12.642H86.2081V7.25323C86.2081 7.02047 86.2108 6.75659 86.2162 6.46151C86.2279 6.16634 86.2397 5.86271 86.2514 5.55053C86.2695 5.23845 86.2867 4.93761 86.3047 4.64819C86.3282 4.35868 86.3517 4.10614 86.3752 3.89047H86.2957L80.9845 12.642H76.9797V0.195803ZM105.555 9.88372V16.5155H102.159V12.642H92.26V0.195803H95.7625V9.88372H99.3445V0.195803H102.847V9.88372H105.555ZM115.189 12.642L114.554 10.3094H110.363L109.71 12.642H105.882L110.09 0.144718H114.74L119 12.642H115.189ZM113.831 7.55119L113.275 5.50799C113.215 5.28666 113.131 4.97169 113.019 4.56302C112.907 4.14877 112.795 3.72309 112.683 3.28609C112.578 2.84339 112.495 2.48016 112.437 2.19639C112.383 2.48016 112.308 2.83203 112.207 3.252C112.113 3.66634 112.013 4.07781 111.907 4.48639C111.807 4.89507 111.719 5.23557 111.643 5.50799L111.087 7.55119H113.831Z" fill="#686868"/>
</svg>
