<svg width="160" height="32" viewBox="0 0 160 32" fill="none" xmlns="http://www.w3.org/2000/svg">
<path d="M21.2301 9.24745C21.2301 7.64928 20.944 6.45787 20.3719 5.67329C19.7997 4.85969 19.077 4.30753 18.2037 4.01698C17.3605 3.72643 16.5324 3.59566 15.7193 3.62469L12.7832 3.66828C12.1508 3.66828 11.6088 3.75545 11.1571 3.9298C10.7054 4.07512 10.3591 4.42382 10.1182 4.9759C9.87724 5.49894 9.75682 6.3271 9.75682 7.46037V13.5626L12.467 13.4754C15.4182 13.3882 17.7972 13.5771 19.604 14.0421C21.4409 14.507 22.8412 15.1753 23.8048 16.0471C24.7986 16.8898 25.461 17.8632 25.7923 18.9674C26.1537 20.0717 26.3344 21.2339 26.3344 22.4544C26.3344 24.3722 25.8526 25.9995 24.8889 27.3362C23.9554 28.6438 22.6605 29.6317 21.0043 30.3001C19.348 30.9685 17.4659 31.3026 15.358 31.3026H0V28.4259C0.692616 28.3968 1.26477 28.3096 1.71648 28.1643C2.19829 28.019 2.55966 27.6849 2.80057 27.1618C3.07159 26.6388 3.2071 25.7961 3.2071 24.6338V7.93983C3.2071 7.15526 3.22216 6.39972 3.25227 5.67329C3.3125 4.94687 3.35767 4.39471 3.38778 4.01698C2.90597 4.04601 2.30369 4.07512 1.58097 4.10415C0.858238 4.10415 0.331253 4.11871 0 4.14774V0.791519H23.9403L24.1662 9.24745H21.2301ZM9.75682 24.3722C9.75682 25.1568 9.74173 25.8978 9.71165 26.5952C9.68156 27.2926 9.63639 27.8302 9.57613 28.2079C10.1182 28.2079 10.6301 28.2079 11.1119 28.2079C11.5937 28.2079 12.0756 28.2079 12.5574 28.2079C13.0392 28.1789 13.506 28.1643 13.9577 28.1643C15.7946 28.0772 17.1347 27.496 17.9778 26.4208C18.821 25.3457 19.2426 23.9654 19.2426 22.28C19.2426 20.7691 18.9565 19.6067 18.3844 18.7931C17.8122 17.9795 17.0744 17.4128 16.171 17.0932C15.2977 16.7735 14.3793 16.6137 13.4156 16.6137C12.6628 16.6137 12.0153 16.6137 11.4733 16.6137C10.9312 16.5847 10.3591 16.5991 9.75682 16.6573V24.3722ZM42.0145 31.3026C41.9543 30.8958 41.9091 30.5616 41.879 30.3001C41.879 30.0095 41.864 29.6753 41.8338 29.2976C40.81 30.2855 39.7259 30.9829 38.5815 31.3898C37.4373 31.7966 36.2778 32 35.1034 32C33.1762 32 31.6704 31.4479 30.5864 30.3437C29.5023 29.2395 28.9602 27.8592 28.9602 26.2029C28.9602 24.8081 29.3216 23.6167 30.0443 22.6287C30.7972 21.6408 31.7759 20.8417 32.9804 20.2314C34.2151 19.5922 35.5702 19.1127 37.0457 18.7931C38.5514 18.4444 40.0571 18.241 41.5628 18.1828V15.9163C41.5628 15.1608 41.4574 14.4779 41.2466 13.8677C41.0659 13.2575 40.7347 12.778 40.2528 12.4293C39.8011 12.0806 39.1537 11.9208 38.3105 11.9499C37.7384 11.9789 37.1812 12.0952 36.6392 12.2986C36.0971 12.5019 35.6304 12.7926 35.2389 13.1703C35.4798 13.4318 35.6304 13.7224 35.6906 14.0421C35.7509 14.3326 35.781 14.5941 35.781 14.8266C35.781 15.4078 35.5401 16.018 35.0582 16.6573C34.5764 17.2675 33.8085 17.5581 32.7545 17.529C31.8511 17.5 31.1586 17.1949 30.6767 16.6137C30.1949 16.0325 29.954 15.3497 29.954 14.5651C29.954 13.4028 30.3756 12.4003 31.2187 11.5576C32.0921 10.6858 33.2514 10.0175 34.6969 9.55256C36.1423 9.05854 37.7384 8.81158 39.4849 8.81158C42.135 8.81158 44.1827 9.47994 45.6281 10.8166C47.1037 12.1242 47.8415 14.231 47.8415 17.1367C47.8415 18.1247 47.8415 18.9674 47.8415 19.6648C47.8415 20.3622 47.8265 21.0596 47.7963 21.757C47.7963 22.4544 47.7963 23.2971 47.7963 24.2851C47.7963 24.6919 47.7813 25.273 47.7511 26.0286C47.721 26.755 47.6759 27.4524 47.6156 28.1207C48.1276 28.0626 48.6696 28.0336 49.2417 28.0336C49.814 28.0045 50.2506 27.99 50.5517 27.99V31.3026H42.0145ZM41.5176 21.2775C40.6744 21.3647 39.8765 21.51 39.1236 21.7134C38.3708 21.9168 37.7083 22.1929 37.1361 22.5416C36.594 22.8903 36.1574 23.3116 35.8261 23.8056C35.525 24.2996 35.3744 24.8517 35.3744 25.4619C35.4046 26.2755 35.6756 26.8567 36.1875 27.2054C36.6994 27.5541 37.2867 27.7285 37.9491 27.7285C38.6418 27.7285 39.2892 27.5831 39.8915 27.2926C40.4938 27.002 41.0358 26.6242 41.5176 26.1593C41.5176 25.8688 41.5176 25.5927 41.5176 25.3312C41.5176 25.0406 41.5176 24.75 41.5176 24.4594C41.5176 23.9364 41.5176 23.4133 41.5176 22.8903C41.5176 22.3382 41.5176 21.8006 41.5176 21.2775ZM64.8894 12.3421C64.0763 12.3421 63.4741 12.5019 63.0826 12.8216C62.7212 13.1413 62.4804 13.5916 62.3599 14.1728C62.2695 14.754 62.2244 15.4368 62.2244 16.2214V24.2851C62.2244 24.6919 62.2094 25.273 62.1792 26.0286C62.1491 26.755 62.1039 27.4524 62.0437 28.1207C62.5256 28.0626 63.0525 28.0336 63.6246 28.0336C64.2269 28.0045 64.6786 27.99 64.9798 27.99V31.3026H53.1451V28.4694C53.9883 28.4694 54.5906 28.3096 54.9519 27.99C55.3133 27.6703 55.5391 27.22 55.6295 26.6388C55.75 26.0286 55.8102 25.3457 55.8102 24.5902V16.5265C55.8102 16.1197 55.8252 15.5386 55.8553 14.783C55.8855 14.0275 55.9307 13.3301 55.9908 12.6908C55.5091 12.7199 54.9821 12.749 54.4099 12.778C53.8377 12.807 53.386 12.8216 53.0548 12.8216V9.50897H64.8894V12.3421ZM71.5746 13.1703L73.7428 15.3497L60.7789 27.3798L58.5656 25.1568L71.5746 13.1703ZM79.5246 12.3421C78.7116 12.3421 78.1094 12.5019 77.7178 12.8216C77.3565 13.1413 77.1156 13.5916 76.9951 14.1728C76.9048 14.754 76.8596 15.4368 76.8596 16.2214V24.2851C76.8596 24.6919 76.8446 25.273 76.8144 26.0286C76.7843 26.755 76.7392 27.4524 76.6789 28.1207C77.1608 28.0626 77.6877 28.0336 78.2599 28.0336C78.8622 28.0045 79.3139 27.99 79.615 27.99V31.3026H67.7803V28.4694C68.6236 28.4694 69.2258 28.3096 69.5871 27.99C69.9485 27.6703 70.1744 27.22 70.2647 26.6388C70.3852 26.0286 70.4454 25.3457 70.4454 24.5902V16.5265C70.4454 16.1197 70.4605 15.5386 70.4905 14.783C70.5207 14.0275 70.5659 13.3301 70.6261 12.6908C70.1443 12.7199 69.6173 12.749 69.0451 12.778C68.473 12.807 68.0213 12.8216 67.69 12.8216V9.50897H79.5246V12.3421ZM82.1537 31.3026V28.4694C82.9969 28.4694 83.5992 28.3096 83.9606 27.99C84.352 27.6703 84.5929 27.22 84.6833 26.6388C84.8037 26.0286 84.864 25.3457 84.864 24.5902V16.5265C84.864 16.1197 84.8791 15.5386 84.9091 14.783C84.9392 14.0275 84.9844 13.3301 85.0446 12.6908C84.5629 12.7199 84.0358 12.749 83.4637 12.778C82.8915 12.807 82.4398 12.8216 82.1086 12.8216V9.50897H93.9437V12.3421C93.0999 12.3421 92.4829 12.5019 92.0917 12.8216C91.7303 13.1413 91.5045 13.5916 91.4141 14.1728C91.3238 14.754 91.2786 15.4368 91.2786 16.2214V18.27H93.4468L96.6991 14.6523C97.0902 14.2454 97.4064 13.8967 97.6477 13.6062C97.9187 13.3156 98.1897 13.0541 98.4607 12.8216H96.0667V9.50897H106.23V12.2986C105.176 12.4148 104.243 12.6618 103.429 13.0395C102.616 13.3882 101.908 13.8096 101.306 14.3036C100.734 14.7976 100.237 15.2771 99.8158 15.742L96.9249 18.8367C97.3766 19.0691 97.813 19.3887 98.2349 19.7956C98.6866 20.1733 99.2286 20.769 99.861 21.5826L102.887 25.4183C103.068 25.6217 103.294 25.8978 103.565 26.2465C103.866 26.5952 104.197 26.9439 104.559 27.2926C104.92 27.6123 105.311 27.8882 105.733 28.1207C106.154 28.3532 106.591 28.4694 107.043 28.4694V31.3026H101.849C100.885 31.3026 100.042 30.9829 99.319 30.3437C98.5962 29.6753 97.7678 28.731 96.8346 27.5105C96.2925 26.8131 95.7198 26.0721 95.1181 25.2876C94.5453 24.474 94.0033 23.7184 93.492 23.021C93.0096 22.2946 92.6184 21.728 92.3175 21.3211L91.2786 21.3647V24.2851C91.2786 24.6919 91.2633 25.273 91.2335 26.0286C91.2027 26.755 91.1576 27.4524 91.0979 28.1207C91.5795 28.0626 92.1061 28.0336 92.6789 28.0336C93.2508 28.0045 93.7025 27.99 94.034 27.99V31.3026H82.1537ZM122.078 31.3026C122.017 30.8958 121.972 30.5616 121.942 30.3001C121.942 30.0095 121.927 29.6753 121.897 29.2976C120.872 30.2855 119.788 30.9829 118.645 31.3898C117.5 31.7966 116.341 32 115.167 32C113.239 32 111.734 31.4479 110.65 30.3437C109.565 29.2395 109.023 27.8592 109.023 26.2029C109.023 24.8081 109.385 23.6167 110.107 22.6287C110.86 21.6408 111.838 20.8417 113.044 20.2314C114.278 19.5922 115.633 19.1127 117.109 18.7931C118.614 18.4444 120.12 18.241 121.626 18.1828V15.9163C121.626 15.1608 121.52 14.4779 121.31 13.8677C121.129 13.2575 120.798 12.778 120.316 12.4293C119.864 12.0806 119.217 11.9208 118.374 11.9499C117.801 11.9789 117.244 12.0952 116.702 12.2986C116.16 12.5019 115.693 12.7926 115.302 13.1703C115.542 13.4318 115.693 13.7224 115.754 14.0421C115.813 14.3326 115.844 14.5941 115.844 14.8266C115.844 15.4078 115.603 16.018 115.121 16.6573C114.639 17.2675 113.871 17.5581 112.818 17.529C111.914 17.5 111.221 17.1949 110.74 16.6137C110.257 16.0325 110.017 15.3497 110.017 14.5651C110.017 13.4028 110.438 12.4003 111.282 11.5576C112.155 10.6858 113.315 10.0175 114.76 9.55256C116.205 9.05854 117.801 8.81158 119.548 8.81158C122.198 8.81158 124.246 9.47994 125.691 10.8166C127.167 12.1242 127.905 14.231 127.905 17.1367C127.905 18.1247 127.905 18.9674 127.905 19.6648C127.905 20.3622 127.889 21.0596 127.859 21.757C127.859 22.4544 127.859 23.2971 127.859 24.2851C127.859 24.6919 127.844 25.273 127.814 26.0286C127.784 26.755 127.738 27.4524 127.679 28.1207C128.19 28.0626 128.732 28.0336 129.305 28.0336C129.877 28.0045 130.313 27.99 130.615 27.99V31.3026H122.078ZM121.581 21.2775C120.737 21.3647 119.939 21.51 119.187 21.7134C118.433 21.9168 117.771 22.1929 117.199 22.5416C116.657 22.8903 116.22 23.3116 115.889 23.8056C115.588 24.2996 115.438 24.8517 115.438 25.4619C115.467 26.2755 115.738 26.8567 116.251 27.2054C116.762 27.5541 117.349 27.7285 118.012 27.7285C118.704 27.7285 119.352 27.5831 119.955 27.2926C120.556 27.002 121.098 26.6242 121.581 26.1593C121.581 25.8688 121.581 25.5927 121.581 25.3312C121.581 25.0406 121.581 24.75 121.581 24.4594C121.581 23.9364 121.581 23.4133 121.581 22.8903C121.581 22.3382 121.581 21.8006 121.581 21.2775ZM136.37 31.9128C134.985 31.9128 133.84 31.5496 132.937 30.8232C132.033 30.0967 131.581 29.1523 131.581 27.99C131.581 27.0311 131.868 26.3046 132.44 25.8106C133.012 25.2876 133.765 25.026 134.698 25.026C135.662 25.026 136.34 25.273 136.731 25.767C137.153 26.261 137.363 26.7986 137.363 27.3798C137.363 27.7575 137.318 28.0481 137.228 28.2515C137.137 28.4258 137.033 28.5856 136.912 28.731C137.002 28.8181 137.153 28.8617 137.363 28.8617C138.176 28.8617 138.885 28.2079 139.486 26.9003C140.089 25.5927 140.586 23.7184 140.977 21.2775C141.369 18.8367 141.67 15.9017 141.88 12.4729L137.589 12.8216V9.50897H159.768V12.3421C158.925 12.3421 158.308 12.5019 157.916 12.8216C157.555 13.1413 157.314 13.5916 157.193 14.1728C157.103 14.754 157.058 15.4368 157.058 16.2214V24.2851C157.058 24.6919 157.043 25.273 157.012 26.0286C156.983 26.755 156.937 27.4524 156.877 28.1207L159.813 27.99V31.3026H147.933V28.4694C148.777 28.4694 149.379 28.3096 149.74 27.99C150.132 27.6703 150.372 27.22 150.463 26.6388C150.584 26.0286 150.643 25.3457 150.643 24.5902V16.5265C150.643 16.1197 150.659 15.5822 150.689 14.9138C150.719 14.2164 150.764 13.5626 150.824 12.9524H147.436C146.714 12.9524 146.202 13.0686 145.901 13.3011C145.6 13.5336 145.419 14.013 145.358 14.7394C145.178 17.6452 144.847 20.1733 144.365 22.3236C143.913 24.474 143.311 26.261 142.558 27.6849C141.835 29.1087 140.947 30.1693 139.893 30.8667C138.869 31.5641 137.695 31.9128 136.37 31.9128Z" fill="#2F70D9"/>
</svg>
